<svg xmlns="http://www.w3.org/2000/svg" width="960" height="500"><g transform="translate(20, 20)"><g><g transform="translate(0, 460)" fill="none" font-size="10" font-family="sans-serif" text-anchor="middle"><path class="domain" stroke="#000" d="M0.5000,6V0.5000H920.5000V6"></path><g class="tick" opacity="1" transform="translate(0,0)"><line stroke="#000" y2="6" x1="0.5" x2="0.5"></line><text fill="#000" y="9" x="0.5" dy="0.71em">0</text></g><g class="tick" opacity="1" transform="translate(97,0)"><line stroke="#000" y2="6" x1="0.5" x2="0.5"></line><text fill="#000" y="9" x="0.5" dy="0.71em">2</text></g><g class="tick" opacity="1" transform="translate(194,0)"><line stroke="#000" y2="6" x1="0.5" x2="0.5"></line><text fill="#000" y="9" x="0.5" dy="0.71em">4</text></g><g class="tick" opacity="1" transform="translate(291,0)"><line stroke="#000" y2="6" x1="0.5" x2="0.5"></line><text fill="#000" y="9" x="0.5" dy="0.71em">6</text></g><g class="tick" opacity="1" transform="translate(387,0)"><line stroke="#000" y2="6" x1="0.5" x2="0.5"></line><text fill="#000" y="9" x="0.5" dy="0.71em">8</text></g><g class="tick" opacity="1" transform="translate(484,0)"><line stroke="#000" y2="6" x1="0.5" x2="0.5"></line><text fill="#000" y="9" x="0.5" dy="0.71em">10</text></g><g class="tick" opacity="1" transform="translate(581,0)"><line stroke="#000" y2="6" x1="0.5" x2="0.5"></line><text fill="#000" y="9" x="0.5" dy="0.71em">12</text></g><g class="tick" opacity="1" transform="translate(678,0)"><line stroke="#000" y2="6" x1="0.5" x2="0.5"></line><text fill="#000" y="9" x="0.5" dy="0.71em">14</text></g><g class="tick" opacity="1" transform="translate(775,0)"><line stroke="#000" y2="6" x1="0.5" x2="0.5"></line><text fill="#000" y="9" x="0.5" dy="0.71em">16</text></g><g class="tick" opacity="1" transform="translate(872,0)"><line stroke="#000" y2="6" x1="0.5" x2="0.5"></line><text fill="#000" y="9" x="0.5" dy="0.71em">18</text></g></g><g fill="none" font-size="10" font-family="sans-serif" text-anchor="end"><path class="domain" stroke="#000" d="M-6,460.5000H0.5000V0.5000H-6"></path><g class="tick" opacity="1" transform="translate(0,460)"><line stroke="#000" x2="-6" y1="0.5" y2="0.5"></line><text fill="#000" x="-9" y="0.5" dy="0.32em">10</text></g><g class="tick" opacity="1" transform="translate(0,403)"><line stroke="#000" x2="-6" y1="0.5" y2="0.5"></line><text fill="#000" x="-9" y="0.5" dy="0.32em">20</text></g><g class="tick" opacity="1" transform="translate(0,345)"><line stroke="#000" x2="-6" y1="0.5" y2="0.5"></line><text fill="#000" x="-9" y="0.5" dy="0.32em">30</text></g><g class="tick" opacity="1" transform="translate(0,288)"><line stroke="#000" x2="-6" y1="0.5" y2="0.5"></line><text fill="#000" x="-9" y="0.5" dy="0.32em">40</text></g><g class="tick" opacity="1" transform="translate(0,230)"><line stroke="#000" x2="-6" y1="0.5" y2="0.5"></line><text fill="#000" x="-9" y="0.5" dy="0.32em">50</text></g><g class="tick" opacity="1" transform="translate(0,173)"><line stroke="#000" x2="-6" y1="0.5" y2="0.5"></line><text fill="#000" x="-9" y="0.5" dy="0.32em">60</text></g><g class="tick" opacity="1" transform="translate(0,115)"><line stroke="#000" x2="-6" y1="0.5" y2="0.5"></line><text fill="#000" x="-9" y="0.5" dy="0.32em">70</text></g><g class="tick" opacity="1" transform="translate(0,58)"><line stroke="#000" x2="-6" y1="0.5" y2="0.5"></line><text fill="#000" x="-9" y="0.5" dy="0.32em">80</text></g><g class="tick" opacity="1" transform="translate(0,0)"><line stroke="#000" x2="-6" y1="0.5" y2="0.5"></line><text fill="#000" x="-9" y="0.5" dy="0.32em">90</text></g></g><path fill="none" stroke="steelblue" stroke-width="1.5" d="M0,46L8,38.3333C16,30.6667,32,15.3333,48.1667,39.3333C64.3333,63.3333,80.6667,126.6667,96.8333,144C113,161.3333,129,132.6667,145.1667,117.3333C161.3333,102,177.6667,100,193.8333,84.6667C210,69.3333,226,40.6667,242.1667,98.1667C258.3333,155.6667,274.6667,299.3333,290.8333,357.6667C307,416,323,389,339,372.6667C355,356.3333,371,350.6667,387.1667,324.8333C403.3333,299,419.6667,253,435.8333,242.5000C452,232,468,257,484.1667,230.1667C500.3333,203.3333,516.6667,124.6667,532.8333,125.6667C549,126.6667,565,207.3333,581,233.1667C597,259,613,230,629.1667,243.3333C645.3333,256.6667,661.6667,312.3333,677.8333,285.5000C694,258.6667,710,149.3333,726.1667,139.8333C742.3333,130.3333,758.6667,220.6667,774.8333,290.6667C791,360.6667,807,410.3333,823.1667,432.3333C839.3333,454.3333,855.6667,448.6667,871.8333,394C888,339.3333,904,235.6667,912,183.8333L920,132"></path></g></g></svg>